<svg xmlns="http://www.w3.org/2000/svg" height="40" fill="#2465ed" viewBox="0 96 960 960" width="40"><path d="M146.666 778v91.334h666.668V778H146.666Zm0-442h112.668q-5-9-7.5-21.333-2.5-12.334-2.5-23.334 0-48.055 33.666-81.694Q316.667 176 364 176q30.494 0 56.414 15.5 25.919 15.5 42.253 39.167l17.666 26 17.667-26Q514.667 206 540.01 191q25.343-15 54.586-15 48.737 0 82.404 33.333 33.666 33.334 33.666 82.241 0 10.759-2.166 21.426-2.167 10.667-7.167 23h112.001q27 0 46.833 19.833T880 402.666v466.668q0 27-19.833 46.833T813.334 936H146.666q-27 0-46.833-19.833T80 869.334V402.666q0-27 19.833-46.833T146.666 336Zm0 330.667h666.668V402.666H579.333L674 533.333l-53.333 39.334L480 379.333 339.333 572.667 286 533.333l94.001-130.667H146.666v264.001ZM364.667 340q20.333 0 34.5-14.167 14.167-14.166 14.167-34.5 0-20.333-14.167-34.5-14.167-14.167-34.5-14.167-20.334 0-34.5 14.167Q316 271 316 291.333q0 20.334 14.167 34.5Q344.333 340 364.667 340Zm230 0q20.966 0 35.15-14.167Q644 311.667 644 291.333q0-20.333-14.183-34.5-14.184-14.167-35.15-14.167-19.667 0-33.834 14.167-14.167 14.167-14.167 34.5 0 20.334 14.167 34.5Q575 340 594.667 340Z"/></svg>