<svg xmlns="http://www.w3.org/2000/svg" fill="grey" height="20" viewBox="0 96 960 960" width="20"><path d="M631.999 865.999v64.162q0 20.545-14.647 35.191-14.646 14.647-34.458 14.647H133.106q-19.812 0-34.459-14.647-14.646-14.646-14.646-34.738V613.386q0-20.092 14.646-34.738 14.647-14.647 34.739-14.647h96.615V420q0-103.333 72.917-175.666Q375.834 172.001 480 172.001h148q103.333 0 175.666 72.333T875.999 420v559.999H798v-114H631.999Zm0-77.999H798V420.394Q798 349 748.412 299.5 698.825 250 628 250H480q-71.65 0-121.825 49T308 420v144.001h275.012q19.694 0 34.34 14.647 14.647 14.646 14.647 35.043V788ZM428.001 495.999v-77.998h249.998v77.998H428.001ZM358 751l196-109H162l196 109Zm0 77.384-196-111V902h392V717.384l-196 111ZM162 642v260-260Z"/></svg>