<svg xmlns="http://www.w3.org/2000/svg" fill="grey" height="20" viewBox="0 96 960 960" width="20"><path d="M323.461 586.615ZM92.001 917.999V455.001L384 236.233l148.306 111.229q-16.077 11.384-30.422 25.154-14.346 13.769-23.961 29.307L384 333.231 170 494v346h172.308v77.999H92.002Zm330 0v-86.136q0-22.248 10.692-40.369T461 762.308q42.846-27.615 90.693-40.039 47.846-12.423 96.307-12.423 52.461 0 100.307 12.423 47.847 12.424 86.693 40.039 17.922 12.171 28.461 30.238 10.538 18.067 10.538 38.905v86.548H422.001ZM516.691 840h262.618v-16.77q-28.812-15.923-62.33-25.654-33.517-9.731-68.979-9.731-33.462 0-67.479 9.231-34.018 9.231-63.83 25.154V840Zm131.59-176.078q-54.05 0-92.165-37.835-38.115-37.834-38.115-91.884 0-54.049 37.834-92.165 37.835-38.115 91.884-38.115 54.05 0 92.165 37.835 38.115 37.834 38.115 91.884 0 54.049-37.834 92.165-37.835 38.115-91.884 38.115ZM648 585.923q21.696 0 36.849-15.152 15.152-15.152 15.152-36.849 0-21.696-15.152-36.848-15.153-15.152-36.849-15.152-21.696 0-36.849 15.152-15.152 15.152-15.152 36.848 0 21.697 15.152 36.849 15.153 15.152 36.849 15.152ZM648 840Z"/></svg>