<svg xmlns="http://www.w3.org/2000/svg" fill="grey" height="20" viewBox="0 96 960 960" width="20"><path d="M480 971.999q-81.732 0-154.113-31.51-72.382-31.509-125.624-84.752-53.243-53.242-84.752-125.624Q84.001 657.732 84.001 576q0-82.218 31.51-154.356 31.509-72.139 84.752-125.381 53.242-53.243 125.624-84.752 72.381-31.51 154.113-31.51 82.218 0 154.356 31.51 72.139 31.509 125.381 84.752 53.243 53.242 84.752 125.381 31.51 72.138 31.51 154.356v65.769q0 62.614-41.616 98.422-41.615 35.808-95.657 35.808-34.65 0-63.419-16.231t-49.692-44.693q-28.692 28.308-66.923 44.616-38.23 16.308-78.956 16.308-83.113 0-141.424-58.455-58.311-58.454-58.311-141.77t58.455-141.545q58.454-58.228 141.77-58.228t141.545 58.389q58.228 58.388 58.228 141.61v65.769q0 18.692 16.892 37.462Q713.784 698 738.999 698q25.216 0 42.108-18.769Q798 660.461 798 641.769V576q0-133-92.5-225.5T480 258q-133 0-225.5 92.5T162 576q0 133 92.5 225.5T479.77 894H676v77.999H480ZM480.118 698Q531 698 566.5 662.382q35.5-35.617 35.5-86.5Q602 525 566.382 489.5q-35.617-35.5-86.5-35.5Q429 454 393.5 489.618q-35.5 35.617-35.5 86.5Q358 627 393.618 662.5q35.617 35.5 86.5 35.5Z"/></svg>