<svg xmlns="http://www.w3.org/2000/svg" fill="grey" height="20" viewBox="0 96 960 960" width="20"><path d="M774.025 920.691q-126.487-10-238.91-63.385-112.422-53.384-198.806-140.269-86.385-86.884-140.461-199.614-54.077-112.73-63.077-240.095-2-23.327 11.285-37.827 13.286-14.5 36.715-14.5H323.23q18.539 0 32.616 11.077 14.076 11.077 18.846 28.231L399.615 379q2.384 12.013-1 23.968-3.385 11.955-11.154 18.955l-101 99.923q43.385 76.462 105.001 139.885 61.615 63.423 134.539 102.731l110.384-104.923q9.769-9.769 16.034-10.384 6.265-.616 13.427 1.769l120.075 27.615q18.154 4.385 29.731 18.554 11.577 14.169 11.577 31.908v143.69q0 29-18 39t-35.204 9ZM250.693 447.078l67.385-64.308q1.923-1.539 2.5-4.231.577-2.693-.193-5l-16.545-64.385q-.769-3.077-2.692-4.615-1.923-1.539-5.001-1.539H220.77q-2.308 0-3.847 1.539-1.538 1.538-1.538 3.846 3.076 38 12.423 70.808 9.346 32.808 22.885 67.885Zm352.46 355.383q35.869 15.782 72.512 22.968 36.642 7.186 68.181 13.032 2.308 2 3.846-.538 1.539-2.539 1.539-4.847v-78.153q0-3.077-1.539-5.001-1.538-1.923-4.616-2.692l-64.999-15.077q-2.308-.769-4.039-.192-1.731.577-3.654 2.5l-67.231 68Zm-352.46-355.383Zm352.46 355.383Z"/></svg>