<svg xmlns="http://www.w3.org/2000/svg" fill="grey" height="20" viewBox="0 96 960 960" width="20"><path d="M117.772 1021.08V415.077h199.229V311.691L481 151.999l161.999 159.692v279.386h199.229v430.003H117.772Zm77.999-78.003h98.001v-98.001h-98.001v98.001Zm0-176h98.001v-98.001h-98.001v98.001Zm0-176h98.001v-98.001h-98.001v98.001Zm235.228 352h98.002v-98.001h-98.002v98.001Zm0-176h98.002v-98.001h-98.002v98.001Zm0-176h98.002v-98.001h-98.002v98.001Zm0-176h98.002v-98.001h-98.002v98.001Zm235.229 528h98.001v-98.001h-98.001v98.001Zm0-176h98.001v-98.001h-98.001v98.001Z"/></svg>